{
    "asset" : {
        "generator" : "Khronos glTF Blender I/O v1.7.33",
        "version" : "2.0"
    },
    "scene" : 0,
    "scenes" : [
        {
            "name" : "Scene",
            "nodes" : [
                0
            ]
        }
    ],
    "nodes" : [
        {
            "mesh" : 0,
            "name" : "m_tal_nrw_body_preview.002",
            "rotation" : [
                0,
                0.7071068286895752,
                0,
                0.7071068286895752
            ],
            "scale" : [
                0.010000646114349365,
                0.010000646114349365,
                0.010000646114349365
            ]
        }
    ],
    "materials" : [
        {
            "doubleSided" : true,
            "name" : "Fbx Default Material 0.001",
            "pbrMetallicRoughness" : {
                "baseColorFactor" : [
                    0.0055004446767270565,
                    0.01359600480645895,
                    0.7200002670288086,
                    1
                ],
                "metallicFactor" : 0,
                "roughnessFactor" : 0.5527864098548889
            }
        },
        {
            "doubleSided" : true,
            "name" : "Material.001",
            "pbrMetallicRoughness" : {
                "baseColorFactor" : [
                    0.800000011920929,
                    0.800000011920929,
                    0.800000011920929,
                    1
                ],
                "metallicFactor" : 0,
                "roughnessFactor" : 0.5
            }
        }
    ],
    "meshes" : [
        {
            "name" : "m_tal_nrw_body_preview.001",
            "primitives" : [
                {
                    "attributes" : {
                        "POSITION" : 0,
                        "NORMAL" : 1,
                        "TEXCOORD_0" : 2,
                        "COLOR_0" : 3
                    },
                    "indices" : 4,
                    "material" : 0
                },
                {
                    "attributes" : {
                        "POSITION" : 5,
                        "NORMAL" : 6,
                        "TEXCOORD_0" : 7,
                        "COLOR_0" : 8
                    },
                    "indices" : 9,
                    "material" : 1
                }
            ]
        }
    ],
    "accessors" : [
        {
            "bufferView" : 0,
            "componentType" : 5126,
            "count" : 13724,
            "max" : [
                55.37250518798828,
                180.94325256347656,
                27.992507934570312
            ],
            "min" : [
                -55.37254333496094,
                -0.26681527495384216,
                -12.775840759277344
            ],
            "type" : "VEC3"
        },
        {
            "bufferView" : 1,
            "componentType" : 5126,
            "count" : 13724,
            "type" : "VEC3"
        },
        {
            "bufferView" : 2,
            "componentType" : 5126,
            "count" : 13724,
            "type" : "VEC2"
        },
        {
            "bufferView" : 3,
            "componentType" : 5123,
            "count" : 13724,
            "normalized" : true,
            "type" : "VEC4"
        },
        {
            "bufferView" : 4,
            "componentType" : 5123,
            "count" : 75342,
            "type" : "SCALAR"
        },
        {
            "bufferView" : 5,
            "componentType" : 5126,
            "count" : 1111,
            "max" : [
                19.499183654785156,
                90.09375,
                12.45849609375
            ],
            "min" : [
                -19.499183654785156,
                20.830381393432617,
                -9.181648254394531
            ],
            "type" : "VEC3"
        },
        {
            "bufferView" : 6,
            "componentType" : 5126,
            "count" : 1111,
            "type" : "VEC3"
        },
        {
            "bufferView" : 7,
            "componentType" : 5126,
            "count" : 1111,
            "type" : "VEC2"
        },
        {
            "bufferView" : 8,
            "componentType" : 5123,
            "count" : 1111,
            "normalized" : true,
            "type" : "VEC4"
        },
        {
            "bufferView" : 9,
            "componentType" : 5123,
            "count" : 6096,
            "type" : "SCALAR"
        }
    ],
    "bufferViews" : [
        {
            "buffer" : 0,
            "byteLength" : 164688,
            "byteOffset" : 0
        },
        {
            "buffer" : 0,
            "byteLength" : 164688,
            "byteOffset" : 164688
        },
        {
            "buffer" : 0,
            "byteLength" : 109792,
            "byteOffset" : 329376
        },
        {
            "buffer" : 0,
            "byteLength" : 109792,
            "byteOffset" : 439168
        },
        {
            "buffer" : 0,
            "byteLength" : 150684,
            "byteOffset" : 548960
        },
        {
            "buffer" : 0,
            "byteLength" : 13332,
            "byteOffset" : 699644
        },
        {
            "buffer" : 0,
            "byteLength" : 13332,
            "byteOffset" : 712976
        },
        {
            "buffer" : 0,
            "byteLength" : 8888,
            "byteOffset" : 726308
        },
        {
            "buffer" : 0,
            "byteLength" : 8888,
            "byteOffset" : 735196
        },
        {
            "buffer" : 0,
            "byteLength" : 12192,
            "byteOffset" : 744084
        }
    ],
    "buffers" : [
        {
            "byteLength" : 756276,
            "uri" : "data:application/octet-stream;base64,"
        }
    ]
}
